<?xml version="1.0" standalone="no"?>
<!DOCTYPE svg PUBLIC "-//W3C//DTD SVG 20010904//EN"
 "http://www.w3.org/TR/2001/REC-SVG-20010904/DTD/svg10.dtd">
<svg version="1.0" xmlns="http://www.w3.org/2000/svg"
 width="872.000000pt" height="722.000000pt" viewBox="0 0 872.000000 722.000000"
 preserveAspectRatio="xMidYMid meet">

<g transform="translate(0.000000,722.000000) scale(0.100000,-0.100000)"
fill="#000000" stroke="none">
<path d="M4035 6815 c-160 -18 -334 -45 -359 -56 -17 -7 -14 -8 14 -4 140 20
145 20 168 -13 12 -16 26 -40 30 -52 l8 -23 33 29 c19 17 35 44 40 64 l7 35
149 9 c106 6 154 5 166 -3 15 -9 17 -8 12 5 -5 14 3 15 63 11 38 -3 113 -7
167 -8 73 -3 100 -8 107 -19 7 -11 12 -12 18 -4 5 8 25 9 67 3 33 -5 85 -11
115 -15 60 -6 169 -30 177 -37 2 -3 -21 -17 -52 -32 -50 -25 -63 -27 -129 -22
-49 3 -102 17 -167 42 -129 50 -130 50 -124 33 8 -21 123 -93 180 -113 111
-37 265 -28 303 19 36 44 65 56 113 44 52 -13 113 -58 134 -99 8 -15 15 -47
15 -70 0 -41 0 -41 22 -27 35 23 59 62 60 96 l1 31 61 -24 c34 -12 68 -26 77
-30 10 -4 15 -14 12 -24 -9 -33 60 -65 142 -66 66 -1 76 -5 170 -57 110 -61
264 -154 279 -169 6 -5 0 -9 -17 -9 -33 0 -34 -10 -4 -38 16 -15 27 -18 37
-12 8 5 24 10 36 10 28 0 104 -56 105 -78 0 -9 3 -12 5 -5 3 7 13 9 22 6 69
-24 -225 181 -392 273 -261 144 -472 228 -801 320 -52 14 -207 44 -330 64
-191 30 -542 37 -740 15z"/>
<path d="M4262 6736 l0 -54 61 -4 c34 -2 63 -3 64 -3 1 1 -5 17 -15 35 -14 29
-80 79 -103 80 -4 0 -7 -24 -7 -54z"/>
<path d="M4102 6731 c-11 -27 -27 -45 -47 -53 -46 -19 -179 -156 -209 -215
-32 -64 -51 -148 -51 -228 l0 -60 34 -3 c33 -3 33 -3 25 25 -5 15 -9 58 -9 94
1 82 31 134 101 175 59 35 166 44 234 20 24 -8 46 -14 48 -12 1 2 0 15 -4 30
-10 40 -77 95 -125 102 -36 6 -40 9 -26 19 10 7 17 16 17 21 0 4 12 17 26 29
17 14 26 31 27 54 3 50 -20 51 -41 2z"/>
<path d="M3540 6729 c-36 -11 -90 -27 -120 -36 -269 -75 -613 -233 -827 -380
-35 -23 -66 -43 -69 -43 -3 0 -35 -23 -71 -52 -36 -28 -83 -64 -105 -78 -22
-15 -63 -49 -91 -76 -83 -79 -76 -76 -194 -75 -60 1 -132 -3 -161 -10 -51 -11
-57 -10 -122 21 -117 53 -234 50 -375 -10 -53 -23 -82 -52 -137 -135 -36 -56
-39 -64 -36 -125 3 -61 4 -65 29 -68 24 -3 26 1 38 65 30 163 160 278 316 278
59 0 78 -5 117 -28 26 -15 49 -31 52 -35 3 -5 -26 -42 -64 -83 -102 -108 -123
-141 -127 -202 -5 -65 12 -101 51 -105 41 -5 49 8 35 60 -12 42 -11 50 14 99
14 30 53 80 86 113 l59 58 46 -58 c25 -33 46 -62 46 -65 0 -3 -25 -37 -55 -75
-124 -154 -292 -409 -360 -544 -9 -19 -37 -74 -61 -121 -49 -99 -131 -309
-164 -419 -12 -41 -25 -86 -30 -100 -5 -14 -16 -56 -25 -95 -8 -38 -18 -79
-20 -90 -62 -249 -85 -741 -50 -1020 39 -307 101 -546 216 -834 46 -114 178
-383 200 -405 19 -20 20 4 2 31 -80 114 -266 554 -297 700 l-7 31 56 7 57 7
-32 33 c-28 29 -35 32 -63 24 -35 -10 -42 -4 -52 49 -5 28 -2 37 14 49 30 21
27 44 -6 41 -25 -3 -27 0 -43 77 -25 118 -58 435 -45 435 2 0 22 -7 42 -15 29
-12 46 -30 73 -77 53 -93 86 -135 132 -168 37 -27 39 -30 17 -30 -13 0 -41
-11 -62 -26 l-38 -25 18 -31 c10 -17 37 -45 61 -62 24 -17 62 -45 85 -61 23
-17 49 -45 57 -62 8 -18 18 -33 22 -33 4 0 16 16 25 35 l18 35 0 -97 c0 -55 6
-115 13 -135 l14 -38 54 76 54 76 -40 45 c-22 25 -45 61 -52 79 -7 19 -16 34
-20 34 -4 0 -8 13 -8 28 0 15 -8 44 -19 65 l-19 37 27 -7 c14 -3 36 -9 48 -12
12 -3 32 -22 45 -41 32 -47 82 -72 133 -66 33 4 48 14 92 62 44 50 50 63 46
89 -5 29 -1 34 45 64 83 53 227 225 237 284 4 22 13 37 21 37 8 0 14 5 14 10
0 6 -8 10 -19 10 -10 0 -24 7 -31 15 -13 16 -35 21 -26 6 9 -13 -36 0 -55 16
-11 9 -18 10 -20 4 -3 -6 -42 3 -99 22 l-95 33 -3 72 c-2 46 1 72 8 72 6 0 45
-18 88 -39 109 -56 170 -71 280 -71 81 0 104 4 169 30 41 16 76 30 78 30 2 0
7 -15 10 -32 4 -18 23 -78 42 -133 18 -55 68 -210 109 -345 62 -202 165 -503
216 -633 16 -41 35 -57 68 -57 37 0 44 13 26 48 -14 27 -13 31 41 118 113 182
185 295 188 292 3 -3 10 -45 50 -328 19 -132 79 -469 110 -620 13 -63 28 -137
34 -165 24 -131 98 -466 141 -639 11 -44 20 -82 20 -85 0 -3 -17 -7 -38 -8
-26 -1 -44 -10 -59 -28 -32 -36 -29 -45 11 -33 18 6 50 8 70 4 29 -6 37 -12
44 -39 7 -26 5 -33 -10 -39 -24 -10 -24 -31 1 -23 14 4 20 0 25 -17 11 -41 7
-48 -24 -48 -18 0 -33 -6 -37 -15 -8 -21 -1 -26 46 -32 40 -5 42 -8 56 -57 8
-28 19 -73 24 -101 6 -27 23 -94 39 -147 23 -78 26 -98 15 -98 -8 0 -78 14
-156 31 -366 80 -738 238 -1057 450 -211 140 -207 136 -215 217 -4 38 -10 74
-14 81 -4 6 -44 24 -88 40 -106 38 -211 95 -276 150 l-52 45 45 -49 c68 -77
254 -249 360 -334 380 -305 854 -528 1330 -626 74 -16 140 -33 147 -39 7 -6
39 -90 72 -186 34 -96 69 -181 78 -188 20 -14 93 -7 133 13 54 28 156 141 209
231 61 103 62 103 191 104 142 1 364 32 569 81 1073 254 1929 1034 2288 2084
76 223 128 471 153 739 12 127 14 389 2 382 -4 -2 -6 -35 -5 -73 4 -78 -17
-396 -27 -433 -4 -14 -13 -24 -21 -22 -64 16 -169 -18 -169 -54 0 -26 43 -74
97 -110 30 -20 53 -43 53 -52 0 -31 -38 -175 -80 -303 l-41 -127 -37 -6 c-76
-14 -134 -39 -173 -75 -21 -21 -39 -36 -39 -34 0 2 7 19 14 38 l15 35 -40 0
c-60 0 -94 -23 -143 -98 -54 -82 -76 -103 -145 -140 -30 -17 -47 -32 -40 -34
8 -3 -7 -5 -32 -5 -53 -1 -93 -18 -86 -37 15 -38 18 -132 7 -192 -14 -74 -11
-82 43 -91 48 -7 120 28 151 74 l24 34 32 -40 c18 -22 45 -44 61 -50 36 -12
37 -2 3 30 -36 34 -60 84 -74 157 -12 60 -15 64 -56 85 l-43 22 112 0 c102 0
117 3 167 27 67 33 92 59 154 160 44 72 102 135 114 124 12 -12 -116 -299
-206 -461 -54 -99 -144 -248 -158 -264 -2 -2 -10 1 -18 8 -15 13 -26 -3 -26
-42 0 -12 -9 -33 -20 -47 -18 -23 -20 -23 -20 -5 0 42 -22 97 -52 130 -37 43
-62 48 -48 9 6 -14 10 -48 10 -75 0 -50 0 -50 -22 -35 -12 9 -37 16 -55 16
l-33 0 0 -68 c0 -55 -5 -79 -27 -122 -41 -80 -67 -95 -167 -95 -110 0 -139 19
-205 131 -4 8 -29 9 -75 5 l-68 -6 56 -53 c62 -59 173 -116 220 -114 17 0 52
4 77 7 31 5 57 2 83 -9 27 -11 44 -13 62 -6 l26 10 -30 -37 c-16 -21 -45 -51
-63 -67 -19 -16 -65 -57 -104 -90 -84 -74 -165 -141 -205 -170 -16 -11 -58
-41 -92 -66 -149 -108 -430 -258 -638 -340 -141 -56 -140 -56 -140 -28 0 13
-6 31 -12 39 -14 17 -132 44 -148 34 -16 -10 -11 -21 15 -35 34 -18 71 -78 57
-92 -7 -7 -23 2 -51 32 -41 44 -64 48 -69 13 -2 -13 6 -26 22 -37 36 -23 33
-31 -16 -45 -24 -7 -51 -15 -62 -18 -16 -4 -17 -1 -11 26 6 30 6 31 -30 31
-21 0 -47 -8 -61 -19 l-25 -19 38 -13 c36 -12 36 -12 13 -21 -13 -5 -77 -18
-143 -30 -91 -16 -124 -18 -138 -10 -13 8 -19 8 -21 0 -6 -18 -338 -51 -338
-33 0 3 30 56 67 117 l68 111 37 -79 37 -79 1 54 c0 48 -3 57 -34 85 -33 32
-33 33 -17 63 l16 31 75 -44 c87 -51 160 -68 267 -62 56 3 78 8 100 26 15 12
58 43 95 68 112 75 201 199 227 315 25 108 3 258 -45 310 -13 14 -24 30 -24
36 0 8 185 107 264 142 5 2 6 -25 3 -66 -4 -38 -4 -73 0 -77 4 -3 17 3 29 15
l23 22 43 -22 c32 -16 44 -18 50 -8 24 40 25 40 76 -12 28 -28 56 -51 62 -51
20 0 11 -86 -13 -121 -40 -60 -111 -74 -141 -26 -15 23 -3 30 29 15 25 -11 29
-10 51 15 30 35 30 49 -1 84 l-25 28 6 -52 c6 -47 5 -53 -12 -53 -11 0 -33 9
-51 20 l-32 19 -11 -35 c-15 -44 -9 -59 32 -84 73 -44 161 -15 205 69 30 58
30 109 -2 152 -43 60 -49 81 -50 179 0 137 31 217 106 271 26 18 26 18 22 -4
-2 -12 3 -31 11 -42 11 -15 15 -16 16 -5 0 9 11 2 29 -18 17 -17 38 -32 48
-32 10 0 27 -14 36 -30 17 -27 23 -30 70 -30 78 0 99 15 113 80 6 30 15 67 19
83 6 23 4 27 -15 27 -34 0 -96 -68 -110 -120 l-12 -44 -14 24 c-30 54 -55 155
-52 210 2 51 7 60 62 123 55 63 62 68 90 63 17 -3 41 -18 54 -34 22 -26 23
-27 37 -8 21 27 20 29 -25 49 -67 31 -67 42 1 143 33 49 69 106 80 126 l19 38
52 -20 c31 -11 71 -39 99 -66 44 -43 50 -46 85 -41 50 8 94 53 104 106 4 22 5
41 1 41 -3 0 -26 -8 -51 -16 -50 -18 -204 -22 -255 -6 l-30 9 42 21 c49 26
109 76 125 105 10 19 8 20 -40 13 l-50 -6 39 92 c47 110 53 123 81 166 13 21
24 61 29 110 5 42 17 119 27 169 12 61 15 89 7 83 -6 -5 -17 -40 -24 -77 -60
-304 -212 -645 -406 -913 -179 -248 -460 -500 -720 -648 -172 -98 -565 -252
-641 -252 -31 0 -30 7 7 88 87 191 257 689 544 1592 70 221 334 1101 436 1457
84 295 181 579 304 898 195 503 264 637 429 834 117 139 211 201 331 218 52 7
66 -9 97 -111 28 -91 22 -230 -12 -301 -12 -25 -29 -48 -36 -51 -8 -2 -21 -6
-29 -9 -22 -7 -7 -32 25 -44 60 -20 100 6 131 88 33 88 36 184 9 272 -41 136
-74 178 -154 200 -50 14 -156 -7 -240 -47 -69 -32 -215 -181 -305 -311 -172
-244 -439 -927 -652 -1663 -86 -298 -161 -550 -291 -985 -48 -163 -105 -346
-180 -580 -301 -946 -407 -1249 -517 -1486 l-40 -87 -48 -6 c-206 -27 -377
-32 -566 -15 -142 12 -388 56 -404 73 -25 24 -235 1052 -272 1331 -6 39 -24
162 -41 275 -17 113 -29 214 -26 225 2 11 31 81 64 155 104 236 230 606 325
955 14 50 46 167 71 260 26 94 51 186 56 205 5 19 22 87 36 150 107 469 224
786 337 910 82 91 151 113 201 64 29 -30 32 -40 14 -47 -21 -8 5 -27 43 -33
86 -12 64 56 -36 115 -182 109 -342 -34 -482 -429 -54 -153 -54 -152 -163
-585 -86 -343 -132 -509 -209 -750 -21 -66 -51 -160 -65 -210 -45 -146 -111
-335 -167 -471 -59 -144 -55 -145 -83 16 -38 217 -69 380 -86 455 -11 44 -29
127 -41 185 -19 95 -86 369 -139 565 -58 219 -109 378 -195 605 l-46 125 38
33 c127 110 462 302 613 352 14 5 57 20 95 35 101 38 280 82 430 106 232 37
579 26 835 -27 263 -55 567 -179 779 -318 47 -31 87 -53 90 -50 9 9 -43 47
-136 101 -61 36 -82 53 -83 69 0 35 21 87 51 126 23 29 28 43 22 68 -5 29 -8
31 -37 26 -51 -10 -148 -62 -194 -105 l-43 -39 -72 28 c-131 52 -389 123 -491
135 -45 6 -60 12 -63 26 -3 10 -9 16 -14 13 -5 -3 -9 11 -9 31 0 44 -31 107
-63 128 -68 44 -161 41 -208 -9 l-22 -23 27 -36 c15 -19 51 -51 79 -70 l52
-35 -168 1 c-92 0 -167 4 -167 9 0 5 -15 3 -33 -5 -19 -8 -86 -21 -150 -29
-99 -13 -230 -40 -299 -62 -14 -4 -18 0 -18 20 0 14 -11 38 -24 53 -20 23 -32
28 -71 28 -40 0 -51 -5 -77 -34 l-30 -33 -15 21 c-21 31 -65 70 -85 77 -46 14
-4 139 55 168 43 20 97 6 97 -25 0 -22 -4 -23 -31 -8 -32 17 -69 -13 -69 -55
0 -38 23 -63 66 -72 24 -4 37 0 62 21 46 39 48 57 10 120 -26 44 -39 56 -65
61 -52 10 -97 -4 -132 -40 -30 -31 -32 -38 -35 -112 -2 -70 0 -83 23 -118 20
-30 27 -55 29 -110 4 -70 3 -72 -22 -84 -37 -16 -39 -16 -32 13 8 30 -10 112
-30 143 l-15 23 -27 -21 c-15 -11 -51 -42 -81 -69 l-55 -49 35 -21 c22 -14 43
-19 60 -16 18 4 28 1 32 -9 3 -8 18 -16 34 -18 26 -3 22 -6 -36 -37 -98 -50
-236 -138 -329 -208 -46 -35 -87 -63 -91 -63 -4 0 -18 23 -32 52 -42 90 -95
164 -174 242 l-77 75 19 25 c10 14 21 26 26 26 10 0 9 52 -2 69 -11 17 -57 6
-125 -28 -36 -19 -41 -19 -70 -4 -17 9 -59 26 -95 37 l-64 22 89 75 c160 135
211 168 259 167 53 -1 89 23 108 71 12 30 31 48 89 83 198 122 451 228 745
313 188 55 184 53 153 54 -14 0 -54 -9 -90 -20z m-1440 -779 c12 -8 3 -22 -50
-75 l-65 -65 -47 59 -47 59 37 16 c41 17 149 21 172 6z m165 -56 l56 -24 -40
-46 c-23 -26 -53 -71 -67 -101 -26 -52 -26 -54 -8 -68 22 -15 34 -11 34 13 1
9 7 28 15 42 l14 25 1 -28 c0 -61 23 -120 61 -160 44 -45 57 -44 40 4 -6 18
-11 52 -11 76 0 43 0 43 23 29 12 -8 36 -16 52 -18 30 -3 30 -3 33 55 2 32 7
57 11 55 29 -11 129 -148 191 -261 l43 -79 -57 -56 -56 -57 0 33 c0 22 -6 34
-17 38 -58 19 -77 31 -94 58 -10 17 -19 41 -19 54 0 46 -88 16 -144 -50 l-34
-39 -21 27 c-11 15 -21 31 -21 36 0 4 -12 -6 -28 -23 l-27 -31 -34 84 c-48
119 -119 259 -143 285 l-20 22 48 56 c72 85 88 95 129 84 19 -5 59 -21 90 -35z
m-204 -394 c27 -65 49 -121 49 -124 0 -4 20 -57 44 -119 25 -62 61 -170 82
-241 37 -128 37 -129 20 -160 -10 -17 -46 -83 -78 -146 -33 -63 -61 -116 -62
-117 -10 -12 -197 85 -364 189 -30 19 -34 19 -58 4 -13 -10 -32 -34 -41 -54
-8 -20 -24 -56 -34 -80 -11 -24 -19 -65 -19 -95 0 -30 -7 -67 -17 -87 l-18
-35 -1 105 c0 112 -24 202 -54 208 -8 1 -30 -7 -49 -19 l-35 -21 43 -36 c67
-55 88 -125 56 -185 -13 -25 -12 -32 3 -63 13 -27 18 -31 22 -18 3 9 6 -7 7
-35 1 -57 39 -129 73 -138 10 -3 24 -19 31 -35 33 -80 161 -245 228 -293 l44
-33 -2 -68 c-1 -38 -4 -70 -5 -71 -3 -3 -219 75 -238 87 -10 5 -25 10 -33 10
-16 0 -234 61 -292 82 -29 11 -35 9 -57 -11 -15 -14 -30 -20 -37 -16 -8 5 -10
4 -5 -3 4 -6 -2 -28 -12 -49 -30 -61 -45 -129 -40 -187 4 -53 4 -53 -16 -35
-11 11 -23 19 -28 19 -9 0 -2 346 8 362 4 5 16 0 29 -12 13 -12 29 -20 36 -18
7 2 -2 17 -23 36 l-34 33 8 67 c11 87 15 94 24 53 l7 -33 24 31 c28 36 82 50
119 31 29 -16 31 -31 4 -48 -51 -31 -45 -109 11 -157 17 -14 34 -25 38 -25 4
0 7 28 8 63 0 48 7 79 32 137 26 60 32 85 28 123 -8 92 -96 145 -183 112 -24
-9 -48 -24 -54 -33 -27 -47 17 140 72 307 39 118 43 124 77 138 48 20 48 21
22 39 -27 20 -26 23 55 189 95 194 152 292 267 453 l59 83 35 -21 c32 -19 35
-19 28 -3 -28 69 -28 71 0 107 15 20 31 33 36 30 5 -3 9 0 9 7 0 7 7 21 17 31
15 17 18 15 50 -38 19 -32 56 -110 84 -174z m702 -212 c149 -390 314 -1054
446 -1793 44 -248 47 -275 26 -316 -10 -18 -68 -112 -129 -208 l-110 -174 -17
39 c-26 63 -195 583 -312 967 l-21 67 24 17 c68 47 108 95 130 154 12 33 20
62 18 63 -1 1 -21 15 -43 31 -21 17 -44 32 -51 35 -6 3 -52 32 -102 65 l-91
60 -36 145 c-20 80 -61 229 -91 332 l-56 187 48 68 c84 118 298 353 321 353 6
0 27 -42 46 -92z m-438 -22 c32 -16 58 -21 131 -21 l91 0 -21 -26 c-11 -14
-48 -59 -81 -99 -33 -40 -70 -85 -81 -102 -19 -25 -22 -26 -27 -11 -3 10 -26
76 -51 147 -25 71 -46 133 -46 138 0 12 33 2 85 -26z m13 -566 c46 -164 82
-303 82 -318 0 -8 -268 152 -287 171 -6 6 45 116 100 215 28 51 54 89 58 85 3
-5 25 -73 47 -153z m-408 -60 c10 -10 30 -41 44 -67 22 -44 23 -50 9 -68 -19
-26 -12 -80 17 -141 22 -45 22 -47 6 -108 -10 -34 -31 -86 -47 -115 l-30 -52
-30 22 -30 21 38 34 c36 33 37 34 9 24 -33 -12 -56 1 -56 30 0 31 49 79 91 90
21 6 39 17 39 24 0 31 -32 114 -50 131 -20 18 -21 18 -44 -4 -47 -44 -146 -46
-146 -3 0 20 22 44 55 58 17 7 14 9 -17 12 -21 2 -38 7 -38 12 0 15 63 82 95
102 39 23 60 23 85 -2z m217 -404 c26 -9 75 -37 108 -62 54 -41 64 -45 104
-41 23 3 57 15 73 27 16 12 34 18 38 14 4 -5 21 -62 38 -127 l31 -119 -67 -31
c-133 -63 -255 -46 -386 53 l-58 44 7 55 c4 31 11 75 17 99 19 79 1 53 -27
-39 -25 -82 -29 -89 -43 -75 -14 14 -12 26 17 123 18 59 35 116 38 126 4 16 7
15 33 -7 16 -13 51 -31 77 -40z m506 -44 c42 -29 77 -60 77 -68 0 -18 -87
-134 -100 -134 -5 0 -11 4 -14 8 -6 11 -66 238 -66 252 0 13 0 13 103 -58z
m-1162 -367 c16 -9 27 -20 24 -25 -3 -6 0 -8 7 -5 7 3 19 1 27 -4 11 -7 12
-13 3 -23 -22 -27 -17 -73 14 -124 34 -56 51 -106 60 -184 6 -53 -9 -140 -24
-140 -26 0 -150 95 -187 144 -24 32 -25 34 -9 71 22 54 24 153 2 169 -23 17
-20 85 5 114 24 26 38 27 78 7z m614 -183 c47 -14 61 -22 63 -39 7 -50 -77
-164 -164 -223 -52 -35 -54 -35 -54 -15 0 18 -4 19 -31 3 -18 -11 -23 -10 -33
6 -6 11 -60 73 -119 138 -60 65 -104 118 -99 118 35 0 74 -27 102 -70 33 -52
68 -72 124 -72 68 0 115 57 119 147 2 26 6 33 17 30 8 -2 42 -13 75 -23z
m-373 -162 c-5 -47 -33 -104 -54 -108 -27 -5 -40 32 -28 78 13 48 35 72 64 68
18 -3 20 -9 18 -38z m4003 -1762 c-11 -39 -61 -78 -100 -78 -19 0 -35 3 -34 8
0 8 119 90 132 91 5 1 5 -9 2 -21z m-3477 -401 c24 -22 56 -76 50 -82 -5 -5
-146 118 -147 127 -1 12 73 -23 97 -45z m2928 29 c66 -30 96 -73 102 -142 7
-86 -4 -121 -56 -173 -51 -51 -101 -71 -176 -71 -25 0 -46 -2 -46 -4 0 -2 7
-20 15 -39 8 -20 12 -43 9 -51 -4 -10 2 -15 17 -18 19 -2 12 -10 -42 -43 -57
-35 -72 -40 -139 -43 -64 -3 -90 1 -171 28 -52 17 -100 35 -107 39 -10 6 -2
27 29 87 24 43 47 82 52 86 6 3 11 17 13 31 3 31 98 221 132 263 19 24 40 36
77 45 27 6 57 15 65 20 8 5 51 8 95 9 64 0 91 -5 131 -24z m-1417 -17 c27 -8
37 -15 29 -20 -9 -6 -7 -13 7 -30 27 -30 117 -101 122 -96 2 3 -8 30 -23 61
-16 30 -26 58 -23 60 2 3 47 -2 99 -10 52 -8 118 -17 147 -21 54 -6 63 -15 63
-74 0 -39 10 -41 37 -9 31 38 83 49 119 25 l26 -17 -31 -28 c-48 -45 -37 -124
23 -164 38 -24 41 -21 38 37 -3 41 4 71 30 139 31 82 35 86 68 92 52 9 98 7
105 -3 3 -5 19 -12 35 -16 17 -4 30 -8 30 -10 0 -11 -164 -351 -205 -425 -55
-99 -185 -309 -194 -314 -10 -4 -279 12 -313 19 l-32 7 39 20 c52 27 137 33
205 14 30 -8 57 -13 59 -11 8 8 -21 64 -44 85 -14 13 -48 31 -76 40 -43 15
-48 19 -30 25 12 3 19 11 15 16 -3 5 6 19 19 30 28 21 45 75 29 91 -11 11 -52
-35 -52 -58 0 -8 -19 -23 -41 -35 -23 -11 -68 -46 -100 -78 l-59 -57 -18 60
c-11 35 -15 64 -9 67 5 3 2 9 -6 12 -8 3 -17 18 -20 34 -3 15 -9 37 -13 48 -6
16 0 14 25 -10 17 -16 34 -40 37 -52 7 -26 8 -27 35 -13 26 14 49 62 49 101
l0 32 75 -6 c41 -3 75 -2 75 1 0 4 -17 18 -37 32 -30 21 -51 26 -118 28 -45 2
-99 -1 -120 -7 -44 -12 -50 -8 -60 48 -5 29 -3 39 14 52 21 17 21 17 -8 27
-24 8 -31 18 -37 49 -3 21 -17 76 -30 122 -28 96 -29 115 -10 108 8 -3 33 -11
55 -18z m345 -839 c77 -6 142 -12 144 -14 2 -3 -20 -41 -48 -85 -45 -70 -159
-191 -181 -191 -7 0 -109 282 -109 302 0 5 12 7 28 4 15 -3 90 -11 166 -16z"/>
<path d="M2024 5113 c-22 -22 -56 -68 -76 -104 -38 -68 -67 -102 -108 -132
l-25 -17 45 6 c62 8 128 39 169 77 23 22 32 26 27 14 -3 -11 -9 -30 -12 -44
-6 -24 -5 -24 32 -18 60 11 85 26 122 74 35 47 32 61 -15 61 -28 0 -79 44
-101 87 l-18 34 -40 -38z"/>
<path d="M1610 3978 c-48 -33 -52 -52 -9 -43 19 3 54 14 78 23 39 14 42 17 25
29 -26 19 -57 16 -94 -9z"/>
<path d="M1863 4533 c9 -2 23 -2 30 0 6 3 -1 5 -18 5 -16 0 -22 -2 -12 -5z"/>
<path d="M3760 1171 c5 -11 25 -30 42 -43 41 -28 208 -108 228 -108 8 0 -48
38 -125 85 -77 47 -144 85 -148 85 -4 0 -3 -9 3 -19z"/>
<path d="M4080 1147 c0 -31 103 -147 130 -147 20 0 8 17 -60 85 -38 38 -70 66
-70 62z"/>
<path d="M4241 921 c3 -7 20 -22 39 -34 41 -26 32 -7 -12 24 -17 12 -29 17
-27 10z"/>
<path d="M4430 890 c20 -13 33 -13 25 0 -3 6 -14 10 -23 10 -15 0 -15 -2 -2
-10z"/>
<path d="M4262 816 l0 -53 60 -7 c34 -3 62 -5 64 -4 1 2 -4 17 -11 35 -9 22
-29 40 -63 57 l-49 25 -1 -53z"/>
<path d="M3810 6680 c8 -5 24 -9 35 -9 l20 0 -20 9 c-11 5 -27 9 -35 9 -13 1
-13 0 0 -9z"/>
<path d="M4529 6646 c7 -8 25 -45 41 -83 l29 -68 1 53 c0 46 -4 58 -29 83 -31
30 -65 42 -42 15z"/>
<path d="M5167 6633 c-15 -14 -6 -40 18 -53 30 -16 40 -42 25 -70 -9 -17 -8
-20 9 -20 22 0 41 27 41 59 0 11 -14 36 -31 56 -30 34 -48 42 -62 28z"/>
<path d="M5002 6552 l-23 -18 50 -16 c55 -17 55 -17 65 25 6 26 5 27 -31 27
-21 0 -48 -8 -61 -18z"/>
<path d="M5403 6492 c-17 -9 -42 -25 -55 -34 -14 -10 -61 -23 -105 -29 -72
-11 -85 -10 -136 9 l-57 20 0 -25 c0 -14 -9 -40 -19 -57 l-20 -32 83 -87 83
-87 96 0 95 0 12 29 c16 41 4 86 -31 116 l-30 25 36 31 c19 17 43 44 52 60 14
23 24 29 53 29 47 0 101 -30 123 -68 16 -27 17 -37 7 -67 -8 -25 -18 -35 -32
-35 -14 0 -18 5 -14 15 3 8 8 21 11 28 10 23 -28 60 -60 60 -34 0 -75 -42 -75
-77 0 -31 33 -72 68 -84 67 -23 142 41 142 122 0 64 -46 119 -119 144 -47 16
-71 15 -108 -6z"/>
<path d="M4728 6399 c-3 -54 -11 -90 -32 -134 -34 -73 -37 -135 -9 -172 34
-47 69 -66 118 -66 109 0 165 102 135 246 -11 54 -13 58 -58 77 -26 12 -70 44
-98 71 l-52 51 -4 -73z"/>
<path d="M3209 6403 c-1 -4 -2 -28 -3 -52 -3 -52 -39 -91 -87 -91 l-30 0 21
-30 c18 -26 24 -28 42 -19 12 7 40 9 65 5 40 -5 44 -4 53 20 16 40 12 76 -12
124 -21 40 -47 63 -49 43z"/>
<path d="M3865 6119 c-16 -10 -34 -20 -38 -22 -5 -1 -5 -15 -2 -30 7 -25 10
-27 64 -27 35 0 73 8 101 21 l45 21 -43 13 c-23 7 -54 20 -67 29 -29 19 -23
19 -60 -5z"/>
<path d="M2694 5963 c3 -8 6 -16 6 -19 0 -2 25 -15 55 -29 30 -15 63 -37 74
-51 16 -20 20 -21 25 -8 16 43 7 65 -37 84 -23 10 -62 23 -85 29 -37 8 -43 7
-38 -6z"/>
<path d="M5670 5959 c7 -11 27 -27 46 -35 19 -8 52 -30 73 -49 l39 -35 6 35
c4 19 5 39 2 44 -6 9 -104 46 -149 56 -26 5 -27 4 -17 -16z"/>
<path d="M2905 5844 c-31 -73 -30 -138 1 -86 5 9 20 33 32 53 22 36 22 36 2
54 -18 16 -19 16 -35 -21z"/>
<path d="M2987 5743 c-15 -20 -25 -39 -23 -41 2 -2 23 6 45 18 36 18 40 23 31
40 -15 28 -23 25 -53 -17z"/>
<path d="M7115 3585 c-22 -14 -52 -25 -67 -25 -67 0 -234 -88 -257 -135 -7
-15 -15 -70 -17 -122 l-4 -93 35 0 c39 0 40 2 24 32 -6 11 -11 46 -11 78 0 87
40 153 117 192 53 27 155 34 218 15 46 -15 47 -15 47 6 0 12 -10 34 -23 49
l-22 27 -40 -24z"/>
<path d="M6831 3152 l-41 -24 16 -30 c15 -29 17 -29 67 -23 59 8 127 33 127
46 0 5 -8 9 -18 9 -10 0 -39 10 -64 23 l-46 23 -41 -24z"/>
<path d="M7085 3061 c-18 -17 -118 -41 -172 -41 -34 0 -53 -4 -53 -12 0 -22
102 -108 165 -138 78 -37 181 -55 259 -46 l58 8 -32 33 c-30 31 -34 32 -68 23
-46 -13 -140 -4 -189 19 l-38 16 62 7 c64 7 138 44 150 76 9 23 1 25 -60 13
-31 -6 -64 -9 -73 -5 -15 6 -16 8 0 24 24 27 16 47 -9 23z"/>
<path d="M1495 2900 c3 -5 11 -10 16 -10 6 0 7 5 4 10 -3 6 -11 10 -16 10 -6
0 -7 -4 -4 -10z"/>
<path d="M6870 2192 c0 -5 10 -17 21 -28 22 -19 22 -19 10 3 -12 24 -31 39
-31 25z"/>
<path d="M6534 2144 c-7 -38 10 -114 26 -114 11 0 13 56 4 113 -8 47 -21 48
-30 1z"/>
<path d="M5861 1720 c-30 -139 3 -243 85 -270 27 -9 40 -8 70 6 100 48 68 194
-42 194 l-44 0 0 43 c0 37 -4 45 -29 60 l-29 17 -11 -50z"/>
<path d="M5882 1261 c-28 -49 -29 -123 -3 -171 24 -45 39 -44 63 2 17 32 23
36 39 27 15 -8 26 -5 49 11 30 21 30 22 15 58 -9 20 -23 45 -33 55 -17 19 -84
57 -100 57 -4 0 -18 -17 -30 -39z"/>
<path d="M2620 1266 c0 -19 49 -65 77 -72 50 -13 105 3 142 40 l36 36 -28 0
c-15 0 -37 -9 -48 -19 -12 -11 -32 -22 -45 -25 -33 -9 -80 15 -76 37 2 13 -4
17 -28 17 -19 0 -30 -5 -30 -14z"/>
<path d="M2705 1270 c3 -5 16 -10 28 -10 18 0 19 2 7 10 -20 13 -43 13 -35 0z"/>
<path d="M2895 1240 c-27 -52 -13 -144 27 -178 14 -11 19 -8 37 17 12 16 21
34 21 40 0 14 13 14 27 0 8 -8 19 -6 42 7 17 10 31 22 31 26 0 20 -24 66 -48
91 -21 22 -34 27 -74 27 -43 0 -49 -3 -63 -30z"/>
<path d="M3401 942 c-19 -10 -36 -23 -38 -28 -2 -6 15 -20 37 -33 22 -12 40
-23 40 -25 0 -1 -9 -20 -20 -41 l-21 -40 45 -3 c57 -4 98 17 136 70 50 68 41
87 -45 100 -27 3 -61 9 -75 13 -16 4 -38 -1 -59 -13z"/>
</g>
</svg>
